<svg xmlns="http://www.w3.org/2000/svg" xmlns:xlink="http://www.w3.org/1999/xlink" xmlns:lucid="lucid" width="1327.71" height="727.12"><g transform="translate(322.9999631263041 -198.66669233830842)" lucid:page-tab-id="0_0"><path d="M-500 0h1500v1000H-500z" fill="#fff"/><path d="M-14.3 433.56a15.42 15.42 0 0 1 10.42-4.06h110.4c9.17 0 16.6 13.65 16.6 30.5s-7.43 30.5-16.6 30.5H-3.9a15.42 15.42 0 0 1-10.42-4.06l-24.4-22.38a5.5 5.5 0 0 1 0-8.12z" stroke="#b8f5ed" stroke-width="2" fill="#d7faf5"/><use xlink:href="#a" transform="matrix(1,0,0,1,-31.1328125,441.5) translate(19.14666666666667 22.225)"/><use xlink:href="#b" transform="matrix(1,0,0,1,-31.1328125,441.5) translate(78.97444444444443 22.225)"/><path d="M34.95 249.8a9.33 9.33 0 0 1 10.1 0l73.04 46.95a3.86 3.86 0 0 1 0 6.5L45.04 350.2a9.33 9.33 0 0 1-10.1 0l-73.04-46.95a3.86 3.86 0 0 1 0-6.5z" stroke="#febed9" stroke-width="2" fill="#fff0fb"/><use xlink:href="#c" transform="matrix(1,0,0,1,-31.1328125,258.54999999999995) translate(47.84388888888889 25.38125)"/><use xlink:href="#d" transform="matrix(1,0,0,1,-31.1328125,258.54999999999995) translate(20.343888888888895 51.78125000000001)"/><use xlink:href="#e" transform="matrix(1,0,0,1,-31.1328125,258.54999999999995) translate(92.3938888888889 51.78125000000001)"/><path d="M40.48 412.12h-.95v-10.86h.95zm0-32.2h-.95V353.2h.95z" stroke="#3a414a" stroke-width=".05" fill="#3a414a"/><path d="M40 352.7l.48-.04v.54h-.95v-.54z" fill="#3a414a"/><path stroke="#3a414a" stroke-width=".05" fill="#3a414a"/><path d="M40 426.88l-4.63-14.26h9.27z" fill="#3a414a"/><path d="M40 428.42l-5.3-16.28h10.6zm-3.98-15.33L40 425.34l3.98-12.26z" stroke="#3a414a" stroke-width=".05" fill="#3a414a"/><use xlink:href="#f" transform="matrix(1,0,0,1,28.19753086419753,379.9279409282689) translate(0 14.222222222222223)"/><path d="M134.23 300.48h-12.87v-.96h12.87zm75.5 0h-44.88v-.96h44.88z" stroke="#3a414a" stroke-width=".05" fill="#3a414a"/><path d="M121.38 300.48h-.56l.04-.48-.05-.48h.58z" fill="#3a414a"/><path stroke="#3a414a" stroke-width=".05" fill="#3a414a"/><path d="M224.5 300l-14.27 4.63v-9.26z" fill="#3a414a"/><path d="M226.03 300l-16.28 5.3v-10.6zm-15.33 3.98l12.26-3.98-12.26-3.98z" stroke="#3a414a" stroke-width=".05" fill="#3a414a"/><use xlink:href="#g" transform="matrix(1,0,0,1,134.2276315827375,289.33333333333337) translate(0 14.222222222222223)"/><path d="M283.5 805.9a15.17 15.17 0 0 1 10.38-4.12h106c8.83 0 16 13.44 16 30 0 16.57-7.17 30-16 30h-106a15.17 15.17 0 0 1-10.38-4.1l-23.25-21.8a5.63 5.63 0 0 1 0-8.2z" stroke="#b8f5ed" stroke-width="2" fill="#d7faf5"/><use xlink:href="#h" transform="matrix(1,0,0,1,260.8768915646268,806.7833576617595) translate(20.86919753086419 30.27777777777778)"/><path d="M38.52 492v70.67" stroke="#3a414a" fill="none"/><path d="M39 492h-.95v-.5H39z" stroke="#3a414a" stroke-width=".05" fill="#3a414a"/><path d="M38.53 577.43l-4.64-14.26h9.27z" stroke="#3a414a" fill="#3a414a"/><path d="M35.2 755.93a7.94 7.94 0 0 1 9.6 0l91.98 69.5a4.53 4.53 0 0 1 0 7.24l-92 69.5a7.94 7.94 0 0 1-9.57 0l-91.98-69.5a4.53 4.53 0 0 1 0-7.24z" stroke="#febed9" stroke-width="2" fill="#fff0fb"/><use xlink:href="#i" transform="matrix(1,0,0,1,-56.56640625,757.3103339352896) translate(70.60993827160493 49.27777777777778)"/><use xlink:href="#j" transform="matrix(1,0,0,1,-56.56640625,757.3103339352896) translate(33.42475308641976 75.94444444444446)"/><use xlink:href="#k" transform="matrix(1,0,0,1,-56.56640625,757.3103339352896) translate(112.4370987654321 75.94444444444446)"/><use xlink:href="#l" transform="matrix(1,0,0,1,-56.56640625,757.3103339352896) translate(51.44327160493827 102.61111111111111)"/><path d="M187.04 829.52h-46.96v-.95h46.96zm54.67 0h-31.06v-.95l31.07-.02z" stroke="#3a414a" stroke-width=".05" fill="#3a414a"/><path d="M140.1 829.52h-.56l.04-.47-.04-.48h.56z" fill="#3a414a"/><path stroke="#3a414a" stroke-width=".05" fill="#3a414a"/><path d="M256.48 829.03l-14.27 4.63v-9.26z" fill="#3a414a"/><path d="M258 829.03l-16.26 5.3v-10.6zM242.7 833l12.24-3.97-12.25-3.98z" stroke="#3a414a" stroke-width=".05" fill="#3a414a"/><use xlink:href="#f" transform="matrix(1,0,0,1,187.03686184750865,818.3726811306085) translate(0 14.222222222222223)"/><path d="M-102.24 829.52h-4.44v-.95h4.44zm42.16 0h-11.54v-.95h11.54z" stroke="#3a414a" stroke-width=".05" fill="#3a414a"/><path d="M-59.58 829.05l.04.47h-.56v-.95h.56z" fill="#3a414a"/><path stroke="#3a414a" stroke-width=".05" fill="#3a414a"/><path d="M-107.18 833.68l-14.27-4.63 14.27-4.64z" fill="#3a414a"/><path d="M-106.7 834.34l-16.28-5.3 16.28-5.28zm-13.2-5.3l12.25 4v-7.97z" stroke="#3a414a" stroke-width=".05" fill="#3a414a"/><use xlink:href="#g" transform="matrix(1,0,0,1,-102.23858093028666,818.382180405422) translate(0 14.222222222222223)"/><path d="M-280 815.18a6.4 6.4 0 0 1 6-6.38l143.95-9.12a5.63 5.63 0 0 1 6 5.62v47.5a6 6 0 0 1-6 6H-274a6 6 0 0 1-6-6z" stroke="#eec4ff" stroke-width="2" fill="#f4d9ff"/><use xlink:href="#m" transform="matrix(1,0,0,1,-275,814.2156176920367) translate(14.481481481481481 25.27777777777778)"/><use xlink:href="#n" transform="matrix(1,0,0,1,-275,814.2156176920367) translate(67.44444444444444 25.27777777777778)"/><use xlink:href="#o" transform="matrix(1,0,0,1,-275,814.2156176920367) translate(114.29629629629629 25.27777777777778)"/><path d="M335.88 800.28v-49.42" stroke="#3a414a" fill="none"/><path d="M336.35 800.78h-.95v-.5h.95z" stroke="#3a414a" stroke-width=".05" fill="#3a414a"/><path d="M335.88 736.1l4.63 14.26h-9.26z" stroke="#3a414a" fill="#3a414a"/><path d="M275.88 619.48a6 6 0 0 1 6-6h54c33.13 0 60 26.86 60 60 0 33.13-26.87 60-60 60h-54a6 6 0 0 1-6-6z" stroke="#ff8f8f" stroke-width="2" fill="#ffd9d9"/><use xlink:href="#p" transform="matrix(1,0,0,1,280.8768915646268,618.4770262735981) translate(17.58024691358025 31.52777777777778)"/><use xlink:href="#q" transform="matrix(1,0,0,1,280.8768915646268,618.4770262735981) translate(24.814814814814817 58.19444444444445)"/><use xlink:href="#r" transform="matrix(1,0,0,1,280.8768915646268,618.4770262735981) translate(14.080246913580254 84.86111111111111)"/><path d="M255.88 455.42a6.8 6.8 0 0 1 5.95-6.74l148.1-18.44a5.3 5.3 0 0 1 5.95 5.26v108a6 6 0 0 1-6 6h-148a6 6 0 0 1-6-6z" stroke="#eec4ff" stroke-width="2" fill="#f4d9ff"/><use xlink:href="#s" transform="matrix(1,0,0,1,260.8768915646268,454.5) translate(10.308641975308646 23.40277777777778)"/><use xlink:href="#q" transform="matrix(1,0,0,1,260.8768915646268,454.5) translate(79.32098765432099 23.40277777777778)"/><use xlink:href="#j" transform="matrix(1,0,0,1,260.8768915646268,454.5) translate(26.882716049382722 50.06944444444445)"/><use xlink:href="#t" transform="matrix(1,0,0,1,260.8768915646268,454.5) translate(105.89506172839505 50.06944444444445)"/><use xlink:href="#u" transform="matrix(1,0,0,1,260.8768915646268,454.5) translate(0.33950617283952056 76.73611111111111)"/><use xlink:href="#v" transform="matrix(1,0,0,1,260.8768915646268,454.5) translate(76.82098765432099 76.73611111111111)"/><use xlink:href="#w" transform="matrix(1,0,0,1,260.8768915646268,454.5) translate(120.03086419753086 76.73611111111111)"/><path d="M335.88 611.98v-45.1" stroke="#3a414a" fill="none"/><path d="M336.35 612.5l-.45-.02h-.5v-.52h.95z" stroke="#3a414a" stroke-width=".05" fill="#3a414a"/><path d="M335.88 552.12l4.63 14.26h-9.26z" stroke="#3a414a" fill="#3a414a"/><path d="M335.88 437.95v-39a.04.04 0 0 1 .04-.06.04.04 0 0 0 .05-.05v-23.13" stroke="#3a414a" fill="none"/><path d="M336.35 438.4l-.95.1v-.56h.95z" stroke="#3a414a" stroke-width=".05" fill="#3a414a"/><path d="M335.97 360.95l4.63 14.27h-9.27z" stroke="#3a414a" fill="#3a414a"/><path d="M320.27 200.27l1 .24.92.4.86.53.77.66.66.76.52.87.4.94.23.98.08 1v17.63h-.95v-17.6l-.07-.88-.2-.84-.32-.8-.46-.74-.56-.66-.66-.56-.74-.45-.8-.34-.84-.2-.88-.06H-315l-.88.07-.85.2-.8.34-.75.46-.66.56-.57.66-.45.74-.33.8-.2.84-.07.88v616.35l.06.88.2.86.34.8.45.74.56.66.65.56.74.45.8.33.84.2.88.07h33.48v.95h-33.52l-1-.07-.98-.24-.94-.38-.87-.53-.78-.67-.66-.77-.53-.87-.4-.95-.23-1-.08-.98V206.65l.08-1 .24-1 .4-.92.52-.87.66-.77.77-.67.86-.53.94-.4 1-.23.98-.08h634.3z" stroke="#3a414a" stroke-width=".05" fill="#3a414a"/><path d="M-281 829.52h-.5v-.95h.5z" fill="#3a414a"/><path stroke="#3a414a" stroke-width=".05" fill="#3a414a"/><path d="M325.25 239.05l-4.63-14.27h9.27z" fill="#3a414a"/><path d="M325.25 240.6l-5.3-16.3h10.6zm-3.98-15.34l3.98 12.25 4-12.24z" stroke="#3a414a" stroke-width=".05" fill="#3a414a"/><path d="M543.7 543.93a6.7 6.7 0 0 1 5.97-6.67l148.08-16.6a5.37 5.37 0 0 1 5.96 5.34v96a6 6 0 0 1-6 6h-148a6 6 0 0 1-6-6z" stroke="#eec4ff" stroke-width="2" fill="#f4d9ff"/><use xlink:href="#x" transform="matrix(1,0,0,1,548.7127604363824,543) translate(9.598765432098759 20.27777777777778)"/><use xlink:href="#y" transform="matrix(1,0,0,1,548.7127604363824,543) translate(61.45061728395061 20.27777777777778)"/><use xlink:href="#z" transform="matrix(1,0,0,1,548.7127604363824,543) translate(103.3641975308642 20.27777777777778)"/><use xlink:href="#A" transform="matrix(1,0,0,1,548.7127604363824,543) translate(44.78395061728395 46.94444444444444)"/><use xlink:href="#B" transform="matrix(1,0,0,1,548.7127604363824,543) translate(16.481481481481474 73.61111111111111)"/><path d="M261.86 246.62a11.4 11.4 0 0 1 9.4-4.95h134c11.04 0 20 26.1 20 58.33 0 32.22-8.96 58.33-20 58.33h-134a11.4 11.4 0 0 1-9.4-4.94l-33.2-48.45a8.75 8.75 0 0 1 0-9.9z" stroke="#b8f5ed" stroke-width="2" fill="#d7faf5"/><use xlink:href="#C" transform="matrix(1,0,0,1,230.2540412451375,246.66666666666669) translate(28.41240740740741 31.15277777777778)"/><use xlink:href="#D" transform="matrix(1,0,0,1,230.2540412451375,246.66666666666669) translate(93.72104938271605 31.15277777777778)"/><use xlink:href="#E" transform="matrix(1,0,0,1,230.2540412451375,246.66666666666669) translate(149.21487654320987 31.15277777777778)"/><use xlink:href="#F" transform="matrix(1,0,0,1,230.2540412451375,246.66666666666669) translate(5.184012345679017 57.81944444444445)"/><use xlink:href="#G" transform="matrix(1,0,0,1,230.2540412451375,246.66666666666669) translate(109.93709876543211 57.81944444444445)"/><use xlink:href="#H" transform="matrix(1,0,0,1,230.2540412451375,246.66666666666669) translate(79.4617901234568 84.48611111111111)"/><path d="M851.3 274.57a15.36 15.36 0 0 1 10.4-4.07h106c8.85 0 16 13.2 16 29.5s-7.15 29.5-16 29.5h-106a15.36 15.36 0 0 1-10.4-4.07l-23.18-21.36a5.53 5.53 0 0 1 0-8.14z" stroke="#b8f5ed" stroke-width="2" fill="#d7faf5"/><use xlink:href="#I" transform="matrix(1,0,0,1,828.7127604363824,275.5) translate(23.221049382716046 30.02777777777778)"/><use xlink:href="#J" transform="matrix(1,0,0,1,828.7127604363824,275.5) translate(73.83833333333334 30.02777777777778)"/><path d="M699.88 300.48H665.2v-.96h34.68zm109.08 0H766.6v-.96h42.36z" stroke="#3a414a" stroke-width=".05" fill="#3a414a"/><path d="M665.23 300.48h-.55l.03-.47v-.48h.53z" fill="#3a414a"/><path stroke="#3a414a" stroke-width=".05" fill="#3a414a"/><path d="M823.72 300l-14.26 4.63v-9.26z" fill="#3a414a"/><path d="M825.26 300l-16.28 5.3v-10.6zm-15.33 3.98l12.25-3.98-12.25-3.98z" stroke="#3a414a" stroke-width=".05" fill="#3a414a"/><use xlink:href="#K" transform="matrix(1,0,0,1,699.8793569278375,289.3333333333333) translate(0 14.222222222222223)"/><path d="M426.75 300h139.58" stroke="#3a414a" fill="none"/><path d="M426.77 300.48h-.53v-.95h.53z" stroke="#3a414a" stroke-width=".05" fill="#3a414a"/><path d="M581.1 300l-14.27 4.63v-9.26z" stroke="#3a414a" fill="#3a414a"/><path d="M570.86 440.25a18.45 18.45 0 0 1 10.85-3.52h106c8.85 0 16 10.42 16 23.27s-7.15 23.27-16 23.27h-106a18.45 18.45 0 0 1-10.84-3.52l-22.3-16.22a4.36 4.36 0 0 1 0-7.06z" stroke="#b8f5ed" stroke-width="2" fill="#d7faf5"/><use xlink:href="#I" transform="matrix(1,0,0,1,548.7127604363824,441.72499999999997) translate(29.714876543209876 22.40277777777778)"/><use xlink:href="#L" transform="matrix(1,0,0,1,548.7127604363824,441.72499999999997) translate(80.33216049382716 22.40277777777778)"/><path d="M624.2 419.34h-.96v-20.3h.95zm0-41.64h-.96v-36.2h.95z" stroke="#3a414a" stroke-width=".05" fill="#3a414a"/><path d="M623.7 341l.5-.02v.53h-.96v-.53z" fill="#3a414a"/><path stroke="#3a414a" stroke-width=".05" fill="#3a414a"/><path d="M623.7 434.1l-4.62-14.26h9.27z" fill="#3a414a"/><path d="M623.7 435.64l-5.28-16.27H629zm-3.97-15.32l3.98 12.25 4-12.25z" stroke="#3a414a" stroke-width=".05" fill="#3a414a"/><use xlink:href="#M" transform="matrix(1,0,0,1,603.984365374654,377.69615092902654) translate(0 14.222222222222223)"/><path d="M80 620c0 22.1-17.9 40-40 40S0 642.1 0 620s17.9-40 40-40 40 17.9 40 40zm-80 0h80m-40-40v80" stroke="#b5d6ff" stroke-width="2" fill="#cfe4ff"/><path d="M40.48 736.94h-.95v-11.22h.95zm0-32.56h-.95V661.5h.95z" stroke="#3a414a" stroke-width=".05" fill="#3a414a"/><path d="M40 661l.48-.02v.53h-.95v-.53z" fill="#3a414a"/><path stroke="#3a414a" stroke-width=".05" fill="#3a414a"/><path d="M40 751.7l-4.63-14.26h9.27z" fill="#3a414a"/><path d="M40 753.24l-5.3-16.28h10.6zm-3.98-15.33L40 750.17l3.98-12.25z" stroke="#3a414a" stroke-width=".05" fill="#3a414a"/><g><use xlink:href="#N" transform="matrix(1,0,0,1,7.037037037037038,704.385158732706) translate(0 14.222222222222223)"/></g><path d="M-115.9 620.48H-196l-.9.06-.84.2-.8.34-.74.45-.66.56-.56.65-.45.74-.34.8-.2.84-.06.88v162.85h-.95v-162.9l.07-.98.24-1 .4-.94.53-.87.66-.78.76-.66.87-.53.94-.4 1-.23.98-.08h80.14zm114.4 0h-47.7v-.96h47.7z" stroke="#3a414a" stroke-width=".05" fill="#3a414a"/><path d="M-1 620l.02.48h-.53v-.96h.53z" fill="#3a414a"/><path stroke="#3a414a" stroke-width=".05" fill="#3a414a"/><path d="M-202.03 803.63l-4.64-14.26h9.27z" fill="#3a414a"/><path d="M-202.03 805.17l-5.3-16.28h10.6zm-3.98-15.33l3.97 12.25 3.98-12.26z" stroke="#3a414a" stroke-width=".05" fill="#3a414a"/><g><use xlink:href="#K" transform="matrix(1,0,0,1,-115.91160029397132,609.3333333333334) translate(0 14.222222222222223)"/></g><path d="M623.7 484.77v26.8" stroke="#3a414a" fill="none"/><path d="M624.2 484.8h-.96v-.53h.95z" stroke="#3a414a" stroke-width=".05" fill="#3a414a"/><path d="M623.7 526.34l-4.62-14.27h9.27z" stroke="#3a414a" fill="#3a414a"/><path d="M623.7 629.5v68.12" stroke="#3a414a" fill="none"/><path d="M624.2 629.5h-.96v-.5h.95z" stroke="#3a414a" stroke-width=".05" fill="#3a414a"/><path d="M623.7 712.38l-4.62-14.26h9.27z" stroke="#3a414a" fill="#3a414a"/><path d="M558.38 729.24a7.16 7.16 0 0 1 5.9-7.05l118.86-21.15a5.03 5.03 0 0 1 5.9 4.95v128a6 6 0 0 1-6 6H564.4a6 6 0 0 1-6-6z" stroke="#eec4ff" stroke-width="2" fill="#f4d9ff"/><g><use xlink:href="#O" transform="matrix(1,0,0,1,563.3794271030491,728.3333333333334) translate(37.69135802469136 21.12152777777778)"/><use xlink:href="#P" transform="matrix(1,0,0,1,563.3794271030491,728.3333333333334) translate(17.938271604938272 47.78819444444444)"/><use xlink:href="#Q" transform="matrix(1,0,0,1,563.3794271030491,728.3333333333334) translate(20.407407407407405 74.45486111111111)"/><use xlink:href="#B" transform="matrix(1,0,0,1,563.3794271030491,728.3333333333334) translate(1.9814814814814738 101.12152777777777)"/></g><path d="M663.7 300c0 22.1-17.9 40-40 40-22.08 0-40-17.9-40-40s17.92-40 40-40c22.1 0 40 17.9 40 40zm-80 0h80m-40-40v80" stroke="#b5d6ff" stroke-width="2" fill="#cfe4ff"/><path d="M-260 275.17a6 6 0 0 1 6-6h123.94a6 6 0 0 1 6 6v46.33a6 6 0 0 1-6 6H-254a6 6 0 0 1-6-6z" stroke="#8ee895" stroke-width="2" fill="#c3f7c8"/><g><use xlink:href="#R" transform="matrix(1,0,0,1,-247.99999999999994,281.1666666666667) translate(9.148148148148152 22.15277777777778)"/><use xlink:href="#S" transform="matrix(1,0,0,1,-247.99999999999994,281.1666666666667) translate(68.34567901234568 22.15277777777778)"/></g><path d="M-122.56 298.33h65.62" stroke="#3a414a" fill="none"/><path d="M-122.55 298.8h-.5v-.94h.5z" stroke="#3a414a" stroke-width=".05" fill="#3a414a"/><path d="M-42.16 298.32l-14.27 4.64v-9.27z" stroke="#3a414a" fill="#3a414a"/><defs><path fill="#282c33" d="M30 0v-248h33v221h125V0H30" id="T"/><path fill="#282c33" d="M100-194c62-1 85 37 85 99 1 63-27 99-86 99S16-35 15-95c0-66 28-99 85-99zM99-20c44 1 53-31 53-75 0-43-8-75-51-75s-53 32-53 75 10 74 51 75" id="U"/><path fill="#282c33" d="M177-190C167-65 218 103 67 71c-23-6-38-20-44-43l32-5c15 47 100 32 89-28v-30C133-14 115 1 83 1 29 1 15-40 15-95c0-56 16-97 71-98 29-1 48 16 59 35 1-10 0-23 2-32h30zM94-22c36 0 50-32 50-73 0-42-14-75-50-75-39 0-46 34-46 75s6 73 46 73" id="V"/><path fill="#282c33" d="M24-231v-30h32v30H24zM24 0v-190h32V0H24" id="W"/><path fill="#282c33" d="M117-194c89-4 53 116 60 194h-32v-121c0-31-8-49-39-48C34-167 62-67 57 0H25l-1-190h30c1 10-1 24 2 32 11-22 29-35 61-36" id="X"/><g id="a"><use transform="matrix(0.06111111111111111,0,0,0.06111111111111111,0,0)" xlink:href="#T"/><use transform="matrix(0.06111111111111111,0,0,0.06111111111111111,12.222222222222221,0)" xlink:href="#U"/><use transform="matrix(0.06111111111111111,0,0,0.06111111111111111,24.444444444444443,0)" xlink:href="#V"/><use transform="matrix(0.06111111111111111,0,0,0.06111111111111111,36.666666666666664,0)" xlink:href="#W"/><use transform="matrix(0.06111111111111111,0,0,0.06111111111111111,41.49444444444444,0)" xlink:href="#X"/></g><path fill="#282c33" d="M115-194c55 1 70 41 70 98S169 2 115 4C84 4 66-9 55-30l1 105H24l-1-265h31l2 30c10-21 28-34 59-34zm-8 174c40 0 45-34 45-75s-6-73-45-74c-42 0-51 32-51 76 0 43 10 73 51 73" id="Y"/><path fill="#282c33" d="M141-36C126-15 110 5 73 4 37 3 15-17 15-53c-1-64 63-63 125-63 3-35-9-54-41-54-24 1-41 7-42 31l-33-3c5-37 33-52 76-52 45 0 72 20 72 64v82c-1 20 7 32 28 27v20c-31 9-61-2-59-35zM48-53c0 20 12 33 32 33 41-3 63-29 60-74-43 2-92-5-92 41" id="Z"/><path fill="#282c33" d="M100-194c63 0 86 42 84 106H49c0 40 14 67 53 68 26 1 43-12 49-29l28 8c-11 28-37 45-77 45C44 4 14-33 15-96c1-61 26-98 85-98zm52 81c6-60-76-77-97-28-3 7-6 17-6 28h103" id="aa"/><g id="b"><use transform="matrix(0.06111111111111111,0,0,0.06111111111111111,0,0)" xlink:href="#Y"/><use transform="matrix(0.06111111111111111,0,0,0.06111111111111111,12.222222222222221,0)" xlink:href="#Z"/><use transform="matrix(0.06111111111111111,0,0,0.06111111111111111,24.444444444444443,0)" xlink:href="#V"/><use transform="matrix(0.06111111111111111,0,0,0.06111111111111111,36.666666666666664,0)" xlink:href="#aa"/></g><path fill="#282c33" d="M232-93c-1 65-40 97-104 97C67 4 28-28 28-90v-158h33c8 89-33 224 67 224 102 0 64-133 71-224h33v155" id="ab"/><path fill="#282c33" d="M135-143c-3-34-86-38-87 0 15 53 115 12 119 90S17 21 10-45l28-5c4 36 97 45 98 0-10-56-113-15-118-90-4-57 82-63 122-42 12 7 21 19 24 35" id="ac"/><path fill="#282c33" d="M114-163C36-179 61-72 57 0H25l-1-190h30c1 12-1 29 2 39 6-27 23-49 58-41v29" id="ad"/><g id="c"><use transform="matrix(0.06111111111111111,0,0,0.06111111111111111,0,0)" xlink:href="#ab"/><use transform="matrix(0.06111111111111111,0,0,0.06111111111111111,15.827777777777778,0)" xlink:href="#ac"/><use transform="matrix(0.06111111111111111,0,0,0.06111111111111111,26.827777777777776,0)" xlink:href="#aa"/><use transform="matrix(0.06111111111111111,0,0,0.06111111111111111,39.05,0)" xlink:href="#ad"/></g><path fill="#282c33" d="M24 0v-261h32V0H24" id="ae"/><path fill="#282c33" d="M85-194c31 0 48 13 60 33l-1-100h32l1 261h-30c-2-10 0-23-3-31C134-8 116 4 85 4 32 4 16-35 15-94c0-66 23-100 70-100zm9 24c-40 0-46 34-46 75 0 40 6 74 45 74 42 0 51-32 51-76 0-42-9-74-50-73" id="af"/><g id="d"><use transform="matrix(0.06111111111111111,0,0,0.06111111111111111,0,0)" xlink:href="#ae"/><use transform="matrix(0.06111111111111111,0,0,0.06111111111111111,4.8277777777777775,0)" xlink:href="#U"/><use transform="matrix(0.06111111111111111,0,0,0.06111111111111111,17.049999999999997,0)" xlink:href="#V"/><use transform="matrix(0.06111111111111111,0,0,0.06111111111111111,29.27222222222222,0)" xlink:href="#V"/><use transform="matrix(0.06111111111111111,0,0,0.06111111111111111,41.49444444444444,0)" xlink:href="#aa"/><use transform="matrix(0.06111111111111111,0,0,0.06111111111111111,53.71666666666666,0)" xlink:href="#af"/></g><path fill="#282c33" d="M103-251c84 0 111 97 45 133-19 10-37 24-39 52H78c0-63 77-55 77-114 0-30-21-42-52-43-32 0-53 17-56 46l-32-2c7-45 34-72 88-72zM77 0v-35h34V0H77" id="ag"/><g id="e"><use transform="matrix(0.06111111111111111,0,0,0.06111111111111111,0,0)" xlink:href="#W"/><use transform="matrix(0.06111111111111111,0,0,0.06111111111111111,4.8277777777777775,0)" xlink:href="#X"/><use transform="matrix(0.06111111111111111,0,0,0.06111111111111111,17.049999999999997,0)" xlink:href="#ag"/></g><path fill="#333" d="M175 0L67-191c6 58 2 128 3 191H24v-248h59L193-55c-6-58-2-129-3-193h46V0h-61" id="ah"/><path fill="#333" d="M110-194c64 0 96 36 96 99 0 64-35 99-97 99-61 0-95-36-95-99 0-62 34-99 96-99zm-1 164c35 0 45-28 45-65 0-40-10-65-43-65-34 0-45 26-45 65 0 36 10 65 43 65" id="ai"/><g id="f"><use transform="matrix(0.04938271604938272,0,0,0.04938271604938272,0,0)" xlink:href="#ah"/><use transform="matrix(0.04938271604938272,0,0,0.04938271604938272,12.790123456790125,0)" xlink:href="#ai"/></g><path fill="#333" d="M146-102V0H94v-102L6-248h54l60 105 60-105h54" id="aj"/><path fill="#333" d="M185-48c-13 30-37 53-82 52C43 2 14-33 14-96s30-98 90-98c62 0 83 45 84 108H66c0 31 8 55 39 56 18 0 30-7 34-22zm-45-69c5-46-57-63-70-21-2 6-4 13-4 21h74" id="ak"/><path fill="#333" d="M137-138c1-29-70-34-71-4 15 46 118 7 119 86 1 83-164 76-172 9l43-7c4 19 20 25 44 25 33 8 57-30 24-41C81-84 22-81 20-136c-2-80 154-74 161-7" id="al"/><g id="g"><use transform="matrix(0.04938271604938272,0,0,0.04938271604938272,0,0)" xlink:href="#aj"/><use transform="matrix(0.04938271604938272,0,0,0.04938271604938272,10.864197530864198,0)" xlink:href="#ak"/><use transform="matrix(0.04938271604938272,0,0,0.04938271604938272,20.74074074074074,0)" xlink:href="#al"/></g><path fill="#282c33" d="M233-177c-1 41-23 64-60 70L243 0h-38l-65-103H63V0H30v-248c88 3 205-21 203 71zM63-129c60-2 137 13 137-47 0-61-80-42-137-45v92" id="am"/><path fill="#282c33" d="M59-47c-2 24 18 29 38 22v24C64 9 27 4 27-40v-127H5v-23h24l9-43h21v43h35v23H59v120" id="an"/><g id="h"><use transform="matrix(0.06172839506172839,0,0,0.06172839506172839,0,0)" xlink:href="#am"/><use transform="matrix(0.06172839506172839,0,0,0.06172839506172839,15.987654320987653,0)" xlink:href="#aa"/><use transform="matrix(0.06172839506172839,0,0,0.06172839506172839,28.333333333333332,0)" xlink:href="#V"/><use transform="matrix(0.06172839506172839,0,0,0.06172839506172839,40.67901234567901,0)" xlink:href="#W"/><use transform="matrix(0.06172839506172839,0,0,0.06172839506172839,45.55555555555556,0)" xlink:href="#ac"/><use transform="matrix(0.06172839506172839,0,0,0.06172839506172839,56.66666666666667,0)" xlink:href="#an"/><use transform="matrix(0.06172839506172839,0,0,0.06172839506172839,62.83950617283951,0)" xlink:href="#ad"/><use transform="matrix(0.06172839506172839,0,0,0.06172839506172839,70.18518518518519,0)" xlink:href="#Z"/><use transform="matrix(0.06172839506172839,0,0,0.06172839506172839,82.53086419753087,0)" xlink:href="#an"/><use transform="matrix(0.06172839506172839,0,0,0.06172839506172839,88.70370370370371,0)" xlink:href="#W"/><use transform="matrix(0.06172839506172839,0,0,0.06172839506172839,93.58024691358025,0)" xlink:href="#U"/><use transform="matrix(0.06172839506172839,0,0,0.06172839506172839,105.92592592592594,0)" xlink:href="#X"/></g><path fill="#282c33" d="M30-248c118-7 216 8 213 122C240-48 200 0 122 0H30v-248zM63-27c89 8 146-16 146-99s-60-101-146-95v194" id="ao"/><g id="i"><use transform="matrix(0.06172839506172839,0,0,0.06172839506172839,0,0)" xlink:href="#ao"/><use transform="matrix(0.06172839506172839,0,0,0.06172839506172839,15.987654320987653,0)" xlink:href="#U"/><use transform="matrix(0.06172839506172839,0,0,0.06172839506172839,28.333333333333332,0)" xlink:href="#aa"/><use transform="matrix(0.06172839506172839,0,0,0.06172839506172839,40.67901234567901,0)" xlink:href="#ac"/></g><path fill="#282c33" d="M84 4C-5 8 30-112 23-190h32v120c0 31 7 50 39 49 72-2 45-101 50-169h31l1 190h-30c-1-10 1-25-2-33-11 22-28 36-60 37" id="ap"/><g id="j"><use transform="matrix(0.06172839506172839,0,0,0.06172839506172839,0,0)" xlink:href="#ac"/><use transform="matrix(0.06172839506172839,0,0,0.06172839506172839,11.11111111111111,0)" xlink:href="#an"/><use transform="matrix(0.06172839506172839,0,0,0.06172839506172839,17.28395061728395,0)" xlink:href="#ap"/><use transform="matrix(0.06172839506172839,0,0,0.06172839506172839,29.629629629629626,0)" xlink:href="#af"/><use transform="matrix(0.06172839506172839,0,0,0.06172839506172839,41.9753086419753,0)" xlink:href="#aa"/><use transform="matrix(0.06172839506172839,0,0,0.06172839506172839,54.32098765432098,0)" xlink:href="#X"/><use transform="matrix(0.06172839506172839,0,0,0.06172839506172839,66.66666666666666,0)" xlink:href="#an"/></g><path fill="#282c33" d="M106-169C34-169 62-67 57 0H25v-261h32l-1 103c12-21 28-36 61-36 89 0 53 116 60 194h-32v-121c2-32-8-49-39-48" id="aq"/><path fill="#282c33" d="M108 0H70L1-190h34L89-25l56-165h34" id="ar"/><g id="k"><use transform="matrix(0.06172839506172839,0,0,0.06172839506172839,0,0)" xlink:href="#aq"/><use transform="matrix(0.06172839506172839,0,0,0.06172839506172839,12.345679012345679,0)" xlink:href="#Z"/><use transform="matrix(0.06172839506172839,0,0,0.06172839506172839,24.691358024691358,0)" xlink:href="#ar"/><use transform="matrix(0.06172839506172839,0,0,0.06172839506172839,35.80246913580247,0)" xlink:href="#aa"/></g><path fill="#282c33" d="M96-169c-40 0-48 33-48 73s9 75 48 75c24 0 41-14 43-38l32 2c-6 37-31 61-74 61-59 0-76-41-82-99-10-93 101-131 147-64 4 7 5 14 7 22l-32 3c-4-21-16-35-41-35" id="as"/><g id="l"><use transform="matrix(0.06172839506172839,0,0,0.06172839506172839,0,0)" xlink:href="#Z"/><use transform="matrix(0.06172839506172839,0,0,0.06172839506172839,12.345679012345679,0)" xlink:href="#as"/><use transform="matrix(0.06172839506172839,0,0,0.06172839506172839,23.45679012345679,0)" xlink:href="#as"/><use transform="matrix(0.06172839506172839,0,0,0.06172839506172839,34.5679012345679,0)" xlink:href="#U"/><use transform="matrix(0.06172839506172839,0,0,0.06172839506172839,46.913580246913575,0)" xlink:href="#ap"/><use transform="matrix(0.06172839506172839,0,0,0.06172839506172839,59.25925925925925,0)" xlink:href="#X"/><use transform="matrix(0.06172839506172839,0,0,0.06172839506172839,71.60493827160494,0)" xlink:href="#an"/><use transform="matrix(0.06172839506172839,0,0,0.06172839506172839,77.77777777777777,0)" xlink:href="#ag"/></g><g id="m"><use transform="matrix(0.06172839506172839,0,0,0.06172839506172839,0,0)" xlink:href="#ab"/><use transform="matrix(0.06172839506172839,0,0,0.06172839506172839,15.987654320987653,0)" xlink:href="#ac"/><use transform="matrix(0.06172839506172839,0,0,0.06172839506172839,27.098765432098766,0)" xlink:href="#aa"/><use transform="matrix(0.06172839506172839,0,0,0.06172839506172839,39.44444444444444,0)" xlink:href="#ad"/></g><g id="n"><use transform="matrix(0.06172839506172839,0,0,0.06172839506172839,0,0)" xlink:href="#ae"/><use transform="matrix(0.06172839506172839,0,0,0.06172839506172839,4.876543209876543,0)" xlink:href="#U"/><use transform="matrix(0.06172839506172839,0,0,0.06172839506172839,17.22222222222222,0)" xlink:href="#V"/><use transform="matrix(0.06172839506172839,0,0,0.06172839506172839,29.5679012345679,0)" xlink:href="#ac"/></g><g id="o"><use transform="matrix(0.06172839506172839,0,0,0.06172839506172839,0,0)" xlink:href="#W"/><use transform="matrix(0.06172839506172839,0,0,0.06172839506172839,4.876543209876543,0)" xlink:href="#X"/></g><path fill="#282c33" d="M205 0l-28-72H64L36 0H1l101-248h38L239 0h-34zm-38-99l-47-123c-12 45-31 82-46 123h93" id="at"/><path fill="#282c33" d="M210-169c-67 3-38 105-44 169h-31v-121c0-29-5-50-35-48C34-165 62-65 56 0H25l-1-190h30c1 10-1 24 2 32 10-44 99-50 107 0 11-21 27-35 58-36 85-2 47 119 55 194h-31v-121c0-29-5-49-35-48" id="au"/><g id="p"><use transform="matrix(0.06172839506172839,0,0,0.06172839506172839,0,0)" xlink:href="#at"/><use transform="matrix(0.06172839506172839,0,0,0.06172839506172839,14.814814814814813,0)" xlink:href="#af"/><use transform="matrix(0.06172839506172839,0,0,0.06172839506172839,27.160493827160494,0)" xlink:href="#au"/><use transform="matrix(0.06172839506172839,0,0,0.06172839506172839,45.61728395061728,0)" xlink:href="#W"/><use transform="matrix(0.06172839506172839,0,0,0.06172839506172839,50.49382716049382,0)" xlink:href="#X"/></g><g id="q"><use transform="matrix(0.06172839506172839,0,0,0.06172839506172839,0,0)" xlink:href="#aa"/><use transform="matrix(0.06172839506172839,0,0,0.06172839506172839,12.345679012345679,0)" xlink:href="#X"/><use transform="matrix(0.06172839506172839,0,0,0.06172839506172839,24.691358024691358,0)" xlink:href="#ad"/><use transform="matrix(0.06172839506172839,0,0,0.06172839506172839,32.03703703703704,0)" xlink:href="#U"/><use transform="matrix(0.06172839506172839,0,0,0.06172839506172839,44.382716049382715,0)" xlink:href="#ae"/><use transform="matrix(0.06172839506172839,0,0,0.06172839506172839,49.25925925925926,0)" xlink:href="#ac"/></g><g id="r"><use transform="matrix(0.06172839506172839,0,0,0.06172839506172839,0,0)" xlink:href="#ac"/><use transform="matrix(0.06172839506172839,0,0,0.06172839506172839,11.11111111111111,0)" xlink:href="#an"/><use transform="matrix(0.06172839506172839,0,0,0.06172839506172839,17.28395061728395,0)" xlink:href="#ap"/><use transform="matrix(0.06172839506172839,0,0,0.06172839506172839,29.629629629629626,0)" xlink:href="#af"/><use transform="matrix(0.06172839506172839,0,0,0.06172839506172839,41.9753086419753,0)" xlink:href="#aa"/><use transform="matrix(0.06172839506172839,0,0,0.06172839506172839,54.32098765432098,0)" xlink:href="#X"/><use transform="matrix(0.06172839506172839,0,0,0.06172839506172839,66.66666666666666,0)" xlink:href="#an"/></g><g id="s"><use transform="matrix(0.06172839506172839,0,0,0.06172839506172839,0,0)" xlink:href="#at"/><use transform="matrix(0.06172839506172839,0,0,0.06172839506172839,14.814814814814813,0)" xlink:href="#af"/><use transform="matrix(0.06172839506172839,0,0,0.06172839506172839,27.160493827160494,0)" xlink:href="#au"/><use transform="matrix(0.06172839506172839,0,0,0.06172839506172839,45.61728395061728,0)" xlink:href="#W"/><use transform="matrix(0.06172839506172839,0,0,0.06172839506172839,50.49382716049382,0)" xlink:href="#X"/></g><g id="t"><use transform="matrix(0.06172839506172839,0,0,0.06172839506172839,0,0)" xlink:href="#W"/><use transform="matrix(0.06172839506172839,0,0,0.06172839506172839,4.876543209876543,0)" xlink:href="#X"/></g><path fill="#282c33" d="M115-194c53 0 69 39 70 98 0 66-23 100-70 100C84 3 66-7 56-30L54 0H23l1-261h32v101c10-23 28-34 59-34zm-8 174c40 0 45-34 45-75 0-40-5-75-45-74-42 0-51 32-51 76 0 43 10 73 51 73" id="av"/><path fill="#282c33" d="M24-231v-30h32v30H24zM-9 49c24 4 33-6 33-30v-209h32V24c2 40-23 58-65 49V49" id="aw"/><g id="u"><use transform="matrix(0.06172839506172839,0,0,0.06172839506172839,0,0)" xlink:href="#ac"/><use transform="matrix(0.06172839506172839,0,0,0.06172839506172839,11.11111111111111,0)" xlink:href="#ap"/><use transform="matrix(0.06172839506172839,0,0,0.06172839506172839,23.45679012345679,0)" xlink:href="#av"/><use transform="matrix(0.06172839506172839,0,0,0.06172839506172839,35.80246913580247,0)" xlink:href="#aw"/><use transform="matrix(0.06172839506172839,0,0,0.06172839506172839,40.67901234567901,0)" xlink:href="#aa"/><use transform="matrix(0.06172839506172839,0,0,0.06172839506172839,53.02469135802469,0)" xlink:href="#as"/><use transform="matrix(0.06172839506172839,0,0,0.06172839506172839,64.1358024691358,0)" xlink:href="#an"/></g><g id="v"><use transform="matrix(0.06172839506172839,0,0,0.06172839506172839,0,0)" xlink:href="#Z"/><use transform="matrix(0.06172839506172839,0,0,0.06172839506172839,12.345679012345679,0)" xlink:href="#X"/><use transform="matrix(0.06172839506172839,0,0,0.06172839506172839,24.691358024691358,0)" xlink:href="#af"/></g><g id="w"><use transform="matrix(0.06172839506172839,0,0,0.06172839506172839,0,0)" xlink:href="#ac"/><use transform="matrix(0.06172839506172839,0,0,0.06172839506172839,11.11111111111111,0)" xlink:href="#aa"/><use transform="matrix(0.06172839506172839,0,0,0.06172839506172839,23.45679012345679,0)" xlink:href="#an"/></g><path fill="#282c33" d="M68-38c1 34 0 65-14 84H32c9-13 17-26 17-46H33v-38h35" id="ax"/><g id="x"><use transform="matrix(0.06172839506172839,0,0,0.06172839506172839,0,0)" xlink:href="#at"/><use transform="matrix(0.06172839506172839,0,0,0.06172839506172839,14.814814814814813,0)" xlink:href="#af"/><use transform="matrix(0.06172839506172839,0,0,0.06172839506172839,27.160493827160494,0)" xlink:href="#af"/><use transform="matrix(0.06172839506172839,0,0,0.06172839506172839,39.50617283950617,0)" xlink:href="#ax"/></g><g id="y"><use transform="matrix(0.06172839506172839,0,0,0.06172839506172839,0,0)" xlink:href="#aa"/><use transform="matrix(0.06172839506172839,0,0,0.06172839506172839,12.345679012345679,0)" xlink:href="#af"/><use transform="matrix(0.06172839506172839,0,0,0.06172839506172839,24.691358024691358,0)" xlink:href="#W"/><use transform="matrix(0.06172839506172839,0,0,0.06172839506172839,29.5679012345679,0)" xlink:href="#an"/></g><g id="z"><use transform="matrix(0.06172839506172839,0,0,0.06172839506172839,0,0)" xlink:href="#Z"/><use transform="matrix(0.06172839506172839,0,0,0.06172839506172839,12.345679012345679,0)" xlink:href="#X"/><use transform="matrix(0.06172839506172839,0,0,0.06172839506172839,24.691358024691358,0)" xlink:href="#af"/></g><g id="A"><use transform="matrix(0.06172839506172839,0,0,0.06172839506172839,0,0)" xlink:href="#af"/><use transform="matrix(0.06172839506172839,0,0,0.06172839506172839,12.345679012345679,0)" xlink:href="#aa"/><use transform="matrix(0.06172839506172839,0,0,0.06172839506172839,24.691358024691358,0)" xlink:href="#ae"/><use transform="matrix(0.06172839506172839,0,0,0.06172839506172839,29.5679012345679,0)" xlink:href="#aa"/><use transform="matrix(0.06172839506172839,0,0,0.06172839506172839,41.913580246913575,0)" xlink:href="#an"/><use transform="matrix(0.06172839506172839,0,0,0.06172839506172839,48.08641975308642,0)" xlink:href="#aa"/></g><path fill="#282c33" d="M87 75C49 33 22-17 22-94c0-76 28-126 65-167h31c-38 41-64 92-64 168S80 34 118 75H87" id="ay"/><path fill="#282c33" d="M33-261c38 41 65 92 65 168S71 34 33 75H2C39 34 66-17 66-93S39-220 2-261h31" id="az"/><g id="B"><use transform="matrix(0.06172839506172839,0,0,0.06172839506172839,0,0)" xlink:href="#as"/><use transform="matrix(0.06172839506172839,0,0,0.06172839506172839,11.11111111111111,0)" xlink:href="#U"/><use transform="matrix(0.06172839506172839,0,0,0.06172839506172839,23.45679012345679,0)" xlink:href="#au"/><use transform="matrix(0.06172839506172839,0,0,0.06172839506172839,41.91358024691358,0)" xlink:href="#au"/><use transform="matrix(0.06172839506172839,0,0,0.06172839506172839,60.37037037037037,0)" xlink:href="#aa"/><use transform="matrix(0.06172839506172839,0,0,0.06172839506172839,72.71604938271605,0)" xlink:href="#X"/><use transform="matrix(0.06172839506172839,0,0,0.06172839506172839,85.06172839506173,0)" xlink:href="#an"/><use transform="matrix(0.06172839506172839,0,0,0.06172839506172839,91.23456790123457,0)" xlink:href="#ay"/><use transform="matrix(0.06172839506172839,0,0,0.06172839506172839,98.58024691358025,0)" xlink:href="#ac"/><use transform="matrix(0.06172839506172839,0,0,0.06172839506172839,109.69135802469137,0)" xlink:href="#az"/></g><path fill="#282c33" d="M197 0v-115H63V0H30v-248h33v105h134v-105h34V0h-34" id="aA"/><g id="C"><use transform="matrix(0.06172839506172839,0,0,0.06172839506172839,0,0)" xlink:href="#aA"/><use transform="matrix(0.06172839506172839,0,0,0.06172839506172839,15.987654320987653,0)" xlink:href="#U"/><use transform="matrix(0.06172839506172839,0,0,0.06172839506172839,28.333333333333332,0)" xlink:href="#au"/><use transform="matrix(0.06172839506172839,0,0,0.06172839506172839,46.79012345679012,0)" xlink:href="#aa"/></g><g id="D"><use transform="matrix(0.06172839506172839,0,0,0.06172839506172839,0,0)" xlink:href="#ay"/><use transform="matrix(0.06172839506172839,0,0,0.06172839506172839,7.345679012345679,0)" xlink:href="#Y"/><use transform="matrix(0.06172839506172839,0,0,0.06172839506172839,19.691358024691358,0)" xlink:href="#U"/><use transform="matrix(0.06172839506172839,0,0,0.06172839506172839,32.03703703703704,0)" xlink:href="#ac"/><use transform="matrix(0.06172839506172839,0,0,0.06172839506172839,43.14814814814815,0)" xlink:href="#an"/></g><g id="E"><use transform="matrix(0.06172839506172839,0,0,0.06172839506172839,0,0)" xlink:href="#ae"/><use transform="matrix(0.06172839506172839,0,0,0.06172839506172839,4.876543209876543,0)" xlink:href="#W"/><use transform="matrix(0.06172839506172839,0,0,0.06172839506172839,9.753086419753085,0)" xlink:href="#ac"/><use transform="matrix(0.06172839506172839,0,0,0.06172839506172839,20.864197530864196,0)" xlink:href="#an"/><use transform="matrix(0.06172839506172839,0,0,0.06172839506172839,27.037037037037035,0)" xlink:href="#az"/></g><path fill="#282c33" d="M179-190L93 31C79 59 56 82 12 73V49c39 6 53-20 64-50L1-190h34L92-34l54-156h33" id="aB"/><g id="F"><use transform="matrix(0.06172839506172839,0,0,0.06172839506172839,0,0)" xlink:href="#af"/><use transform="matrix(0.06172839506172839,0,0,0.06172839506172839,12.345679012345679,0)" xlink:href="#W"/><use transform="matrix(0.06172839506172839,0,0,0.06172839506172839,17.22222222222222,0)" xlink:href="#ac"/><use transform="matrix(0.06172839506172839,0,0,0.06172839506172839,28.333333333333332,0)" xlink:href="#Y"/><use transform="matrix(0.06172839506172839,0,0,0.06172839506172839,40.67901234567901,0)" xlink:href="#ae"/><use transform="matrix(0.06172839506172839,0,0,0.06172839506172839,45.55555555555556,0)" xlink:href="#Z"/><use transform="matrix(0.06172839506172839,0,0,0.06172839506172839,57.901234567901234,0)" xlink:href="#aB"/><use transform="matrix(0.06172839506172839,0,0,0.06172839506172839,69.01234567901234,0)" xlink:href="#W"/><use transform="matrix(0.06172839506172839,0,0,0.06172839506172839,73.88888888888889,0)" xlink:href="#X"/><use transform="matrix(0.06172839506172839,0,0,0.06172839506172839,86.23456790123457,0)" xlink:href="#V"/></g><g id="G"><use transform="matrix(0.06172839506172839,0,0,0.06172839506172839,0,0)" xlink:href="#ad"/><use transform="matrix(0.06172839506172839,0,0,0.06172839506172839,7.345679012345679,0)" xlink:href="#aa"/><use transform="matrix(0.06172839506172839,0,0,0.06172839506172839,19.691358024691358,0)" xlink:href="#ae"/><use transform="matrix(0.06172839506172839,0,0,0.06172839506172839,24.5679012345679,0)" xlink:href="#aa"/><use transform="matrix(0.06172839506172839,0,0,0.06172839506172839,36.913580246913575,0)" xlink:href="#ar"/><use transform="matrix(0.06172839506172839,0,0,0.06172839506172839,48.02469135802468,0)" xlink:href="#Z"/><use transform="matrix(0.06172839506172839,0,0,0.06172839506172839,60.37037037037036,0)" xlink:href="#X"/><use transform="matrix(0.06172839506172839,0,0,0.06172839506172839,72.71604938271604,0)" xlink:href="#an"/></g><g id="H"><use transform="matrix(0.06172839506172839,0,0,0.06172839506172839,0,0)" xlink:href="#Y"/><use transform="matrix(0.06172839506172839,0,0,0.06172839506172839,12.345679012345679,0)" xlink:href="#U"/><use transform="matrix(0.06172839506172839,0,0,0.06172839506172839,24.691358024691358,0)" xlink:href="#ac"/><use transform="matrix(0.06172839506172839,0,0,0.06172839506172839,35.80246913580247,0)" xlink:href="#an"/><use transform="matrix(0.06172839506172839,0,0,0.06172839506172839,41.97530864197531,0)" xlink:href="#ac"/></g><path fill="#282c33" d="M30-248c87 1 191-15 191 75 0 78-77 80-158 76V0H30v-248zm33 125c57 0 124 11 124-50 0-59-68-47-124-48v98" id="aC"/><g id="I"><use transform="matrix(0.06172839506172839,0,0,0.06172839506172839,0,0)" xlink:href="#aC"/><use transform="matrix(0.06172839506172839,0,0,0.06172839506172839,14.814814814814813,0)" xlink:href="#U"/><use transform="matrix(0.06172839506172839,0,0,0.06172839506172839,27.160493827160494,0)" xlink:href="#ac"/><use transform="matrix(0.06172839506172839,0,0,0.06172839506172839,38.27160493827161,0)" xlink:href="#an"/></g><path fill="#282c33" d="M212-179c-10-28-35-45-73-45-59 0-87 40-87 99 0 60 29 101 89 101 43 0 62-24 78-52l27 14C228-24 195 4 139 4 59 4 22-46 18-125c-6-104 99-153 187-111 19 9 31 26 39 46" id="aD"/><g id="J"><use transform="matrix(0.06172839506172839,0,0,0.06172839506172839,0,0)" xlink:href="#aD"/><use transform="matrix(0.06172839506172839,0,0,0.06172839506172839,15.987654320987653,0)" xlink:href="#am"/><use transform="matrix(0.06172839506172839,0,0,0.06172839506172839,31.975308641975307,0)" xlink:href="#ab"/><use transform="matrix(0.06172839506172839,0,0,0.06172839506172839,47.96296296296296,0)" xlink:href="#ao"/></g><path fill="#333" d="M136-208V0H84v-208H4v-40h212v40h-80" id="aE"/><path fill="#333" d="M133-34C117-15 103 5 69 4 32 3 11-16 11-54c-1-60 55-63 116-61 1-26-3-47-28-47-18 1-26 9-28 27l-52-2c7-38 36-58 82-57s74 22 75 68l1 82c-1 14 12 18 25 15v27c-30 8-71 5-69-32zm-48 3c29 0 43-24 42-57-32 0-66-3-65 30 0 17 8 27 23 27" id="aF"/><path fill="#333" d="M190-63c-7 42-38 67-86 67-59 0-84-38-90-98-12-110 154-137 174-36l-49 2c-2-19-15-32-35-32-30 0-35 28-38 64-6 74 65 87 74 30" id="aG"/><path fill="#333" d="M114-157C55-157 80-60 75 0H25v-261h50l-1 109c12-26 28-41 61-42 86-1 58 113 63 194h-50c-7-57 23-157-34-157" id="aH"/><path fill="#333" d="M135-150c-39-12-60 13-60 57V0H25l-1-190h47c2 13-1 29 3 40 6-28 27-53 61-41v41" id="aI"/><g id="K"><use transform="matrix(0.04938271604938272,0,0,0.04938271604938272,0,0)" xlink:href="#aE"/><use transform="matrix(0.04938271604938272,0,0,0.04938271604938272,9.481481481481481,0)" xlink:href="#ak"/><use transform="matrix(0.04938271604938272,0,0,0.04938271604938272,19.358024691358025,0)" xlink:href="#aF"/><use transform="matrix(0.04938271604938272,0,0,0.04938271604938272,29.23456790123457,0)" xlink:href="#aG"/><use transform="matrix(0.04938271604938272,0,0,0.04938271604938272,39.111111111111114,0)" xlink:href="#aH"/><use transform="matrix(0.04938271604938272,0,0,0.04938271604938272,49.92592592592593,0)" xlink:href="#ak"/><use transform="matrix(0.04938271604938272,0,0,0.04938271604938272,59.802469135802475,0)" xlink:href="#aI"/></g><g id="L"><use transform="matrix(0.06172839506172839,0,0,0.06172839506172839,0,0)" xlink:href="#af"/><use transform="matrix(0.06172839506172839,0,0,0.06172839506172839,12.345679012345679,0)" xlink:href="#aa"/><use transform="matrix(0.06172839506172839,0,0,0.06172839506172839,24.691358024691358,0)" xlink:href="#an"/><use transform="matrix(0.06172839506172839,0,0,0.06172839506172839,30.864197530864196,0)" xlink:href="#Z"/><use transform="matrix(0.06172839506172839,0,0,0.06172839506172839,43.20987654320987,0)" xlink:href="#W"/><use transform="matrix(0.06172839506172839,0,0,0.06172839506172839,48.08641975308642,0)" xlink:href="#ae"/></g><path fill="#333" d="M238-95c0 69-44 99-111 99C63 4 22-25 22-93v-155h51v151c-1 38 19 59 55 60 90 1 49-130 58-211h52v153" id="aJ"/><g id="M"><use transform="matrix(0.04938271604938272,0,0,0.04938271604938272,0,0)" xlink:href="#aJ"/><use transform="matrix(0.04938271604938272,0,0,0.04938271604938272,12.790123456790125,0)" xlink:href="#al"/><use transform="matrix(0.04938271604938272,0,0,0.04938271604938272,22.66666666666667,0)" xlink:href="#ak"/><use transform="matrix(0.04938271604938272,0,0,0.04938271604938272,32.543209876543216,0)" xlink:href="#aI"/></g><path fill="#333" d="M169-182c-1-43-94-46-97-3 18 66 151 10 154 114 3 95-165 93-204 36-6-8-10-19-12-30l50-8c3 46 112 56 116 5-17-69-150-10-154-114-4-87 153-88 188-35 5 8 8 18 10 28" id="aK"/><path fill="#333" d="M115-3C79 11 28 4 28-45v-112H4v-33h27l15-45h31v45h36v33H77v99c-1 23 16 31 38 25v30" id="aL"/><path fill="#333" d="M85 4C-2 5 27-109 22-190h50c7 57-23 150 33 157 60-5 35-97 40-157h50l1 190h-47c-2-12 1-28-3-38-12 25-28 42-61 42" id="aM"/><path fill="#333" d="M88-194c31-1 46 15 58 34l-1-101h50l1 261h-48c-2-10 0-23-3-31C134-8 116 4 84 4 32 4 16-41 15-95c0-56 19-97 73-99zm17 164c33 0 40-30 41-66 1-37-9-64-41-64s-38 30-39 65c0 43 13 65 39 65" id="aN"/><path fill="#333" d="M135-194c87-1 58 113 63 194h-50c-7-57 23-157-34-157-59 0-34 97-39 157H25l-1-190h47c2 12-1 28 3 38 12-26 28-41 61-42" id="aO"/><g id="N"><use transform="matrix(0.04938271604938272,0,0,0.04938271604938272,0,0)" xlink:href="#aK"/><use transform="matrix(0.04938271604938272,0,0,0.04938271604938272,11.851851851851853,0)" xlink:href="#aL"/><use transform="matrix(0.04938271604938272,0,0,0.04938271604938272,17.728395061728396,0)" xlink:href="#aM"/><use transform="matrix(0.04938271604938272,0,0,0.04938271604938272,28.543209876543205,0)" xlink:href="#aN"/><use transform="matrix(0.04938271604938272,0,0,0.04938271604938272,39.358024691358025,0)" xlink:href="#ak"/><use transform="matrix(0.04938271604938272,0,0,0.04938271604938272,49.23456790123457,0)" xlink:href="#aO"/><use transform="matrix(0.04938271604938272,0,0,0.04938271604938272,60.04938271604939,0)" xlink:href="#aL"/></g><path fill="#282c33" d="M140-251c81 0 123 46 123 126C263-46 219 4 140 4 59 4 17-45 17-125s42-126 123-126zm0 227c63 0 89-41 89-101s-29-99-89-99c-61 0-89 39-89 99S79-25 140-24" id="aP"/><g id="O"><use transform="matrix(0.06172839506172839,0,0,0.06172839506172839,0,0)" xlink:href="#aP"/><use transform="matrix(0.06172839506172839,0,0,0.06172839506172839,17.28395061728395,0)" xlink:href="#X"/><use transform="matrix(0.06172839506172839,0,0,0.06172839506172839,29.629629629629626,0)" xlink:href="#ae"/><use transform="matrix(0.06172839506172839,0,0,0.06172839506172839,34.50617283950617,0)" xlink:href="#aB"/></g><g id="P"><use transform="matrix(0.06172839506172839,0,0,0.06172839506172839,0,0)" xlink:href="#an"/><use transform="matrix(0.06172839506172839,0,0,0.06172839506172839,6.172839506172839,0)" xlink:href="#aa"/><use transform="matrix(0.06172839506172839,0,0,0.06172839506172839,18.51851851851852,0)" xlink:href="#Z"/><use transform="matrix(0.06172839506172839,0,0,0.06172839506172839,30.864197530864196,0)" xlink:href="#as"/><use transform="matrix(0.06172839506172839,0,0,0.06172839506172839,41.9753086419753,0)" xlink:href="#aq"/><use transform="matrix(0.06172839506172839,0,0,0.06172839506172839,54.32098765432098,0)" xlink:href="#aa"/><use transform="matrix(0.06172839506172839,0,0,0.06172839506172839,66.66666666666666,0)" xlink:href="#ad"/><use transform="matrix(0.06172839506172839,0,0,0.06172839506172839,74.01234567901234,0)" xlink:href="#ac"/></g><g id="Q"><use transform="matrix(0.06172839506172839,0,0,0.06172839506172839,0,0)" xlink:href="#Z"/><use transform="matrix(0.06172839506172839,0,0,0.06172839506172839,12.345679012345679,0)" xlink:href="#Y"/><use transform="matrix(0.06172839506172839,0,0,0.06172839506172839,24.691358024691358,0)" xlink:href="#Y"/><use transform="matrix(0.06172839506172839,0,0,0.06172839506172839,37.03703703703704,0)" xlink:href="#ad"/><use transform="matrix(0.06172839506172839,0,0,0.06172839506172839,44.382716049382715,0)" xlink:href="#U"/><use transform="matrix(0.06172839506172839,0,0,0.06172839506172839,56.72839506172839,0)" xlink:href="#ar"/><use transform="matrix(0.06172839506172839,0,0,0.06172839506172839,67.8395061728395,0)" xlink:href="#aa"/></g><path fill="#282c33" d="M30 0v-248h187v28H63v79h144v27H63v87h162V0H30" id="aQ"/><g id="R"><use transform="matrix(0.06172839506172839,0,0,0.06172839506172839,0,0)" xlink:href="#aQ"/><use transform="matrix(0.06172839506172839,0,0,0.06172839506172839,14.814814814814813,0)" xlink:href="#X"/><use transform="matrix(0.06172839506172839,0,0,0.06172839506172839,27.160493827160494,0)" xlink:href="#an"/><use transform="matrix(0.06172839506172839,0,0,0.06172839506172839,33.333333333333336,0)" xlink:href="#aa"/><use transform="matrix(0.06172839506172839,0,0,0.06172839506172839,45.67901234567901,0)" xlink:href="#ad"/></g><g id="S"><use transform="matrix(0.06172839506172839,0,0,0.06172839506172839,0,0)" xlink:href="#ac"/><use transform="matrix(0.06172839506172839,0,0,0.06172839506172839,11.11111111111111,0)" xlink:href="#W"/><use transform="matrix(0.06172839506172839,0,0,0.06172839506172839,15.987654320987653,0)" xlink:href="#an"/><use transform="matrix(0.06172839506172839,0,0,0.06172839506172839,22.160493827160494,0)" xlink:href="#aa"/></g></defs></g></svg>